<?xml version="1.0" encoding="utf-8"?>
<!-- Generator: Adobe Illustrator 26.1.0, SVG Export Plug-In . SVG Version: 6.00 Build 0)  -->
<svg version="1.1" xmlns="http://www.w3.org/2000/svg" xmlns:xlink="http://www.w3.org/1999/xlink" x="0px" y="0px"
	 viewBox="0 0 710.14 372.73" style="enable-background:new 0 0 710.14 372.73;" xml:space="preserve">
<style type="text/css">
	.st0{fill:#009491;}
	.st1{fill:#C9DDDE;}
	.st2{fill:#89BCBC;}
	.st3{fill:#FFFFFF;}
</style>
<g id="Calque_1">
	<g>
		<g>
			<g>
				<path class="st0" d="M109.93,301.41v-28.55h-9.98v-6.39h27.25v6.39h-9.43v28.55H109.93z"/>
				<path class="st0" d="M157.09,301.26c0,0-1.15,0.4-3.84,0.4c-10.08,0-6.64-12.78-12.68-12.78h-1.4v12.53h-7.83v-34.94h11.23
					c8.08,0,12.18,3.19,12.18,11.23c0,5.14-3,7.84-4.64,8.83c2.35,3.14,2.15,8.59,5.64,8.59h1.35V301.26z M141.72,282.84
					c3.14,0,5.34-1.7,5.34-4.89c0-3.19-1.8-5.09-4.79-5.09h-3.1v9.98H141.72z"/>
				<path class="st0" d="M176.94,266.47h7.84v20.46c0,11.13-5.54,14.77-12.03,14.77c-6.44,0-12.13-3.64-12.08-14.77v-20.46h7.89
					v21.06c0,3.84,0.75,6.99,4.19,6.99c3.49,0,4.19-3.14,4.19-6.99V266.47z"/>
				<path class="st0" d="M207.53,301.41l-8.83-19.81v19.81h-7.83v-34.94h7.83l8.83,20.66v-20.66h7.84v34.94H207.53z"/>
				<path class="st0" d="M247.6,301.26c0,0-1.2,0.4-3.84,0.4c-10.08,0-6.64-14.03-12.73-14.03h-1.45v13.78h-7.83v-34.94h7.83v14.77
					h1.6c4.14,0.05,6.24-3.89,6.24-14.77h7.79c0,10.08-2.49,15.37-5.79,17.62c4.19,3.39,2.6,11.03,6.84,11.03h1.35V301.26z"/>
				<path class="st0" d="M261.86,301.41v-34.94h9.58c7.83,0,15.22,4.89,15.22,18.12c0,12.63-6.99,16.82-14.12,16.82H261.86z
					 M272.54,295.02c3.69,0,6.39-3.69,6.39-10.53c0-6.94-1.6-11.63-7.59-11.63h-1.65v22.16H272.54z"/>
				<path class="st0" d="M307.67,293.12h-9.33l-2.1,8.28h-8.28l10.98-34.94h8.13L318,301.41h-8.19L307.67,293.12z M300.28,287.13
					h5.49l-2.74-11.38L300.28,287.13z"/>
				<path class="st0" d="M326.38,301.41v-28.55h-9.98v-6.39h27.25v6.39h-9.43v28.55H326.38z"/>
				<path class="st0" d="M361.8,293.12h-9.33l-2.1,8.28h-8.28l10.98-34.94h8.13l10.93,34.94h-8.19L361.8,293.12z M354.42,287.13
					h5.49l-2.74-11.38L354.42,287.13z"/>
				<path class="st0" d="M384.36,301.41v-34.94h11.08c7.68,0,12.58,3.94,12.58,12.23c0,8.19-5.39,11.88-11.48,11.88h-4.34v10.83
					H384.36z M395.08,284.24c3.19,0,4.99-1.9,4.99-5.54c0-3.4-1.65-5.84-5.24-5.84h-2.65v11.38H395.08z"/>
				<path class="st0" d="M412.4,301.41v-34.94h7.83v28.55h11.98v6.39H412.4z"/>
				<path class="st0" d="M453.16,293.12h-9.33l-2.1,8.28h-8.28l10.98-34.94h8.13l10.93,34.94h-8.19L453.16,293.12z M445.78,287.13
					h5.49l-2.74-11.38L445.78,287.13z"/>
				<path class="st0" d="M471.87,301.41v-28.55h-9.98v-6.39h27.25v6.39h-9.43v28.55H471.87z"/>
				<path class="st0" d="M493.28,301.41v-34.94h19.86v6.39h-12.03v8.53h8.83v6.29h-8.83v13.72H493.28z"/>
				<path class="st0" d="M515.63,283.99c0-11.88,6.04-17.82,13.92-17.82c7.84,0,13.88,5.94,13.88,17.82
					c0,11.88-6.09,17.72-13.88,17.72C521.72,301.71,515.63,295.87,515.63,283.99z M535.24,283.99c0-7.98-2.5-10.73-5.69-10.73
					c-3.24,0-5.74,2.74-5.74,10.73c0,7.94,2.49,10.83,5.74,10.83C532.8,294.82,535.24,291.93,535.24,283.99z"/>
				<path class="st0" d="M574.26,301.26c0,0-1.15,0.4-3.84,0.4c-10.08,0-6.64-12.78-12.68-12.78h-1.4v12.53h-7.83v-34.94h11.23
					c8.08,0,12.18,3.19,12.18,11.23c0,5.14-3,7.84-4.64,8.83c2.35,3.14,2.15,8.59,5.64,8.59h1.35V301.26z M558.89,282.84
					c3.14,0,5.34-1.7,5.34-4.89c0-3.19-1.8-5.09-4.79-5.09h-3.1v9.98H558.89z"/>
				<path class="st0" d="M586.28,282.74v18.67h-7.83v-34.94h7.89l7.98,20.56l8.38-20.56h7.49v34.94h-7.83l0.2-19.61l-5.84,15.37
					h-5.29L586.28,282.74z"/>
			</g>
		</g>
		<path class="st1" d="M169.04,96.35c3.77-5.54,8.63-10.28,14.22-13.9c-5.91-8.5-15.94-15.26-29.45-19.49
			c-5.07-1.59-10.47,1.24-12.05,6.31c-1.58,5.07,1.24,10.47,6.31,12.05C154.94,83.47,165.67,88.06,169.04,96.35z"/>
		<path class="st2" d="M208.66,82.83c-16.4,0-30.88,10.64-37.02,25.37c1.06,0.39,2.11,0.81,3.15,1.28
			c6.53,2.94,12.02,7.23,16.26,12.46c0.99-9.65,9.74-16.66,17.62-16.66c6.2,0,11.22-5.02,11.22-11.22
			C219.89,87.86,214.86,82.83,208.66,82.83z"/>
		<g>
			<g>
				<path class="st3" d="M504.89,107.22h-44.71v23.97c-11.22-14.56-28.82-23.97-48.58-23.97h-45.91h-1.67h-87.06v28.21h30.26v94.42
					h28.21v-94.42h28.59v33.86h28.21v-33.86h19.37c18.25,0,33.1,14.85,33.1,33.1s-14.85,33.1-33.1,33.1l-19.22,0v28.21h19.22v0
					c19.76,0,37.36-9.41,48.58-23.97v23.97h28.21v-32.52h16.5c24.84,0,45.06-20.21,45.06-45.06
					C549.95,127.43,529.73,107.22,504.89,107.22z M504.89,169.12h-16.5v-33.69h16.5c9.29,0,16.84,7.56,16.84,16.84
					C521.73,161.56,514.17,169.12,504.89,169.12z"/>
				<path class="st3" d="M221.49,143.55c-8.13,17.27-12.1,22-18.43,22c-5.8,0-10.13-3.49-10.13-6.61h-28.21
					c0,19.2,17.2,34.83,38.35,34.83c25.97,0,36.37-22.08,43.96-38.2c4.6-9.77,9.93-15.51,17.41-18.21v-29.07
					C245.17,111.67,231.04,123.27,221.49,143.55z"/>
				<path class="st3" d="M277.19,149.47c-5.28,0-9.56,4.28-9.56,9.56c0,5.28,4.28,9.56,9.56,9.56c5.28,0,9.56-4.28,9.56-9.56
					C286.75,153.76,282.47,149.47,277.19,149.47z"/>
			</g>
		</g>
		<g>
			<path class="st0" d="M160.47,141.36c2.35,1.06,5.15,3.24,5.15,7.62h28.21c0-14.53-8.35-27.31-21.8-33.35
				c-14.73-6.62-32.23-3.8-44.59,7.18c-5.83,5.17-6.36,14.09-1.18,19.91c5.17,5.83,14.09,6.35,19.91,1.18
				C151.12,139.51,156.97,139.79,160.47,141.36z"/>
		</g>
	</g>
</g>
<g id="Calque_2">
</g>
</svg>
